<?xml version="1.0" standalone="no"?>
<!DOCTYPE svg PUBLIC "-//W3C//DTD SVG 20010904//EN"
 "http://www.w3.org/TR/2001/REC-SVG-20010904/DTD/svg10.dtd">
<svg version="1.0" xmlns="http://www.w3.org/2000/svg"
 width="50px" height="50px" viewBox="0 0 500.000000 500.000000"
 preserveAspectRatio="xMidYMid meet">

<g transform="translate(0.000000,500.000000) scale(0.100000,-0.100000)"
fill="#ffffff" stroke="none">
<path d="M380 4953 c-210 -57 -350 -238 -350 -452 0 -88 22 -175 63 -243 14
-24 411 -428 881 -898 l856 -855 -859 -860 c-472 -473 -872 -881 -889 -906
-50 -75 -74 -161 -74 -264 1 -105 22 -176 77 -260 90 -136 280 -206 475 -176
164 26 100 -31 1060 928 476 474 870 863 875 863 5 0 397 -386 870 -859 971
-969 903 -911 1084 -933 226 -28 405 61 497 246 73 150 66 316 -21 457 -15 24
-417 432 -893 906 l-867 861 851 854 c532 532 861 870 877 898 44 79 60 153
55 257 -5 85 -9 102 -46 176 -23 47 -59 100 -84 124 -132 128 -316 172 -484
116 -109 -36 -162 -85 -1009 -932 l-829 -830 -846 843 c-465 463 -866 857
-893 875 -104 71 -256 96 -377 64z"/>
</g>
</svg>
