<?xml version="1.0" standalone="no"?>
<!DOCTYPE svg PUBLIC "-//W3C//DTD SVG 20010904//EN"
 "http://www.w3.org/TR/2001/REC-SVG-20010904/DTD/svg10.dtd">
<svg version="1.0" xmlns="http://www.w3.org/2000/svg"
 width="50px" height="50px" viewBox="0 0 500.000000 500.000000"
 preserveAspectRatio="xMidYMid meet">

<g transform="translate(0.000000,500.000000) scale(0.100000,-0.100000)"
fill="#ffffff" stroke="none">
<path d="M2240 4980 c-236 -19 -552 -107 -806 -225 -330 -153 -645 -404 -886
-705 -216 -271 -385 -619 -468 -965 -63 -264 -74 -390 -61 -695 13 -286 47
-470 131 -710 58 -164 68 -186 135 -321 118 -235 250 -416 454 -620 271 -270
547 -448 896 -577 299 -111 532 -152 872 -152 377 0 663 61 1021 220 410 180
790 503 1048 886 80 120 195 349 254 507 112 302 160 562 160 867 0 223 -10
327 -46 490 -56 249 -121 435 -224 645 -214 434 -554 792 -992 1044 -248 142
-556 250 -848 296 -123 19 -483 28 -640 15z m555 -880 c551 -95 1035 -505
1238 -1051 172 -459 110 -1002 -161 -1419 -454 -700 -1319 -951 -2067 -600
-372 174 -678 504 -829 897 -191 494 -118 1070 191 1507 81 114 298 328 408
403 370 250 778 338 1220 263z"/>
</g>
</svg>
